<?xml version="1.0" standalone="no"?>
<!DOCTYPE svg PUBLIC "-//W3C//DTD SVG 20010904//EN"
 "http://www.w3.org/TR/2001/REC-SVG-20010904/DTD/svg10.dtd">
<svg version="1.0" xmlns="http://www.w3.org/2000/svg"
 width="300.000000pt" height="300.000000pt" viewBox="0 0 300.000000 300.000000"
 preserveAspectRatio="xMidYMid meet">
<metadata>
Created by potrace 1.11, written by Peter Selinger 2001-2013
</metadata>
<g transform="translate(0.000000,300.000000) scale(0.100000,-0.100000)"
fill="#000000" stroke="none">
<path d="M795 2553 c-99 -20 -183 -65 -238 -127 -28 -32 -75 -137 -82 -187 -4
-24 -9 -120 -10 -214 -4 -196 -14 -259 -54 -329 -49 -88 -120 -130 -241 -142
-30 -3 -59 -7 -65 -8 -6 -2 -10 -38 -9 -82 l0 -79 70 -8 c163 -17 255 -97 285
-248 5 -30 12 -134 14 -232 5 -246 27 -327 115 -415 78 -78 184 -112 348 -112
l97 0 0 75 0 75 -70 1 c-117 2 -141 8 -197 46 -43 29 -75 92 -83 160 -4 26 -7
127 -9 223 -3 192 -13 237 -68 320 -39 58 -93 106 -170 150 -34 19 -63 40 -65
45 -1 6 27 25 63 44 118 61 202 166 229 286 6 27 13 129 14 225 2 201 16 272
63 321 44 45 91 61 198 67 l96 4 -1 74 0 74 -105 -1 c-58 -1 -114 -3 -125 -6z"/>
<path d="M1960 2488 l0 -75 98 -6 c113 -6 165 -26 205 -79 40 -53 49 -102 53
-303 3 -122 9 -210 19 -248 29 -113 117 -215 235 -274 l62 -31 -23 -21 c-13
-11 -27 -21 -32 -21 -20 0 -117 -72 -154 -114 -86 -98 -102 -160 -107 -411 -4
-217 -14 -263 -70 -320 -48 -47 -107 -65 -217 -65 l-69 0 0 -75 0 -75 94 0
c284 0 426 110 461 355 2 17 5 98 6 181 1 165 14 258 46 319 52 100 148 151
291 154 l32 1 0 85 0 85 -32 0 c-102 2 -213 45 -257 101 -52 67 -72 139 -77
287 -11 332 -17 370 -77 458 -73 110 -172 154 -359 162 l-128 5 0 -75z"/>
</g>
</svg>
